<svg xmlns="http://www.w3.org/2000/svg" xmlns:xlink="http://www.w3.org/1999/xlink" width="500" zoomAndPan="magnify" viewBox="0 0 375 374.999991" height="500" preserveAspectRatio="xMidYMid meet" version="1.0"><defs><g/></defs><g fill="#000000" fill-opacity="1"><g transform="translate(7.854376, 325.070625)"><g><path d="M 65.347656 -269.476562 C 34.019531 -269.476562 16.84375 -252.632812 16.84375 -220.96875 L 16.84375 -141.472656 C 16.84375 -135.074219 19.875 -131.03125 25.9375 -129.011719 L 105.769531 -102.738281 L 105.769531 -57.9375 C 105.769531 -48.84375 101.054688 -44.464844 92.296875 -44.464844 L 76.125 -44.464844 C 67.707031 -44.464844 62.652344 -48.84375 62.652344 -57.9375 L 62.652344 -83.875 C 62.652344 -87.578125 60.96875 -89.265625 57.261719 -89.265625 L 22.230469 -89.265625 C 18.863281 -89.265625 16.84375 -87.578125 16.84375 -83.875 L 16.84375 -48.503906 C 16.84375 -16.84375 34.019531 0 65.347656 0 L 103.074219 0 C 134.738281 0 151.578125 -16.84375 151.578125 -48.503906 L 151.578125 -126.316406 C 151.578125 -132.714844 148.546875 -136.421875 142.820312 -138.78125 L 62.652344 -165.054688 L 62.652344 -211.539062 C 62.652344 -220.296875 67.707031 -225.011719 76.125 -225.011719 L 92.296875 -225.011719 C 101.390625 -225.011719 105.769531 -220.296875 105.769531 -211.539062 L 105.769531 -185.265625 C 105.769531 -181.894531 107.789062 -179.875 111.160156 -179.875 L 146.191406 -179.875 C 149.894531 -179.875 151.578125 -181.894531 151.578125 -185.265625 L 151.578125 -220.96875 C 151.578125 -252.632812 134.738281 -269.476562 103.074219 -269.476562 Z M 65.347656 -269.476562 "/></g></g></g><g fill="#000000" fill-opacity="1"><g transform="translate(159.433805, 325.070625)"><g><path d="M 15.496094 -269.476562 C 12.125 -269.476562 10.105469 -267.453125 10.105469 -264.085938 L 10.105469 -230.402344 C 10.105469 -227.03125 12.125 -225.011719 15.496094 -225.011719 L 54.570312 -225.011719 L 54.570312 -5.390625 C 54.570312 -1.683594 56.589844 0 59.957031 0 L 94.988281 0 C 98.695312 0 100.378906 -1.683594 100.378906 -5.390625 L 100.378906 -225.011719 L 139.453125 -225.011719 C 143.160156 -225.011719 144.84375 -227.03125 144.84375 -230.402344 L 144.84375 -264.085938 C 144.84375 -267.453125 143.160156 -269.476562 139.453125 -269.476562 Z M 15.496094 -269.476562 "/></g></g></g><g fill="#000000" fill-opacity="1"><g transform="translate(297.539538, 325.070625)"><g><path d="M 16.84375 -6.738281 C 16.84375 -2.359375 19.199219 0 23.578125 0 L 54.230469 0 C 58.609375 0 60.96875 -2.359375 60.96875 -6.738281 L 60.96875 -37.726562 C 60.96875 -42.105469 58.609375 -44.464844 54.230469 -44.464844 L 23.578125 -44.464844 C 19.199219 -44.464844 16.84375 -42.105469 16.84375 -37.726562 Z M 16.84375 -6.738281 "/></g></g></g></svg>