<svg xmlns="http://www.w3.org/2000/svg" xmlns:xlink="http://www.w3.org/1999/xlink" width="500" zoomAndPan="magnify" viewBox="0 0 375 374.999991" height="500" preserveAspectRatio="xMidYMid meet" version="1.0"><defs><g/></defs><g fill="#e8e8e8" fill-opacity="1"><g transform="translate(29.846188, 279.842816)"><g><path d="M 52.941406 -191.027344 C 27.5625 -191.027344 13.644531 -177.382812 13.644531 -151.730469 L 13.644531 -104.519531 C 13.644531 -99.332031 16.101562 -96.058594 21.011719 -94.421875 L 86.507812 -73.136719 L 86.507812 -45.574219 C 86.507812 -38.207031 82.6875 -34.65625 75.59375 -34.65625 L 60.855469 -34.65625 C 54.035156 -34.65625 49.941406 -38.207031 49.941406 -45.574219 L 49.941406 -57.035156 C 49.941406 -60.035156 48.574219 -61.402344 45.574219 -61.402344 L 18.011719 -61.402344 C 15.28125 -61.402344 13.644531 -60.035156 13.644531 -57.035156 L 13.644531 -39.296875 C 13.644531 -13.644531 27.5625 0 52.941406 0 L 83.507812 0 C 109.15625 0 122.804688 -13.644531 122.804688 -39.296875 L 122.804688 -90.601562 C 122.804688 -95.785156 120.347656 -99.0625 115.707031 -100.699219 L 49.667969 -121.984375 L 49.667969 -145.179688 C 49.667969 -152.277344 53.761719 -156.097656 60.582031 -156.097656 L 75.59375 -156.097656 C 82.960938 -156.097656 86.507812 -152.277344 86.507812 -145.179688 L 86.507812 -133.71875 C 86.507812 -130.988281 88.144531 -129.351562 90.875 -129.351562 L 118.4375 -129.351562 C 121.4375 -129.351562 122.804688 -130.988281 122.804688 -133.71875 L 122.804688 -151.730469 C 122.804688 -177.382812 109.15625 -191.027344 83.507812 -191.027344 Z M 52.941406 -191.027344 "/></g></g></g><g fill="#e8e8e8" fill-opacity="1"><g transform="translate(152.648667, 279.842816)"><g><path d="M 112.980469 -191.027344 C 115.980469 -191.027344 117.34375 -189.390625 117.34375 -186.660156 L 117.34375 -159.371094 C 117.34375 -156.640625 115.980469 -155.003906 112.980469 -155.003906 L 81.324219 -155.003906 L 81.324219 -4.367188 C 81.324219 -1.363281 79.957031 0 76.957031 0 L 48.574219 0 C 45.847656 0 44.210938 -1.363281 44.210938 -4.367188 L 44.210938 -155.003906 L 12.554688 -155.003906 C 9.824219 -155.003906 8.1875 -156.640625 8.1875 -159.371094 L 8.1875 -186.660156 C 8.1875 -189.390625 9.824219 -191.027344 12.554688 -191.027344 Z M 112.980469 -191.027344 "/></g></g></g><g fill="#e8e8e8" fill-opacity="1"><g transform="translate(264.535428, 279.842816)"><g><path d="M 13.644531 -5.457031 C 13.644531 -1.910156 15.554688 0 19.101562 0 L 43.9375 0 C 47.484375 0 49.394531 -1.910156 49.394531 -5.457031 L 49.394531 -30.5625 C 49.394531 -34.113281 47.484375 -36.023438 43.9375 -36.023438 L 19.101562 -36.023438 C 15.554688 -36.023438 13.644531 -34.113281 13.644531 -30.5625 Z M 13.644531 -5.457031 "/></g></g></g></svg>